<?xml version="1.0" encoding="utf-8"?>
<!-- Generator: Adobe Illustrator 28.2.0, SVG Export Plug-In . SVG Version: 6.00 Build 0)  -->
<svg version="1.1" baseProfile="tiny" id="图层_1"
	 xmlns="http://www.w3.org/2000/svg" xmlns:xlink="http://www.w3.org/1999/xlink" x="0px" y="0px" viewBox="0 0 957.8 335"
	 overflow="visible" xml:space="preserve">
<g id="Badge">
	<g id="Icon-2">
		<path fill="#788CC7" d="M256.7,295.6H108.8L34.9,167.5l73.9-128.2h147.8l73.9,128.2L256.7,295.6z M116.9,281.6h131.7l65.8-114.2
			L248.6,53.3H116.9L51.1,167.5L116.9,281.6z"/>
		<circle fill="#164EAF" cx="112.9" cy="46.4" r="35"/>
		
			<ellipse transform="matrix(0.1735 -0.9848 0.9848 0.1735 163.1461 287.1366)" fill="#164EAF" cx="252.6" cy="46.4" rx="35" ry="35"/>
		<circle fill="#164EAF" cx="43" cy="167.5" r="35"/>
		<circle fill="#164EAF" cx="322.5" cy="167.5" r="35"/>
		<circle fill="#164EAF" cx="112.9" cy="288.6" r="35"/>
		<circle fill="#164EAF" cx="252.6" cy="288.6" r="35"/>
		<circle fill="#FFB30F" cx="182.8" cy="167.5" r="69.9"/>
	</g>
	<path id="MediaWiki_wordmark" d="M468.6,268.3l-0.1-79.1h-11.6l-29.7,52.4l-30.3-52.4h-11.7v79h13.5v-51.7l25,42.6h6.3l25-43.4
		l0.1,52.4L468.6,268.3L468.6,268.3z M540.2,238.5c0.1-5.7-1.2-11.3-3.8-16.3c-2.4-4.6-6-8.4-10.4-10.9c-4.6-2.7-9.9-4-15.1-3.9
		c-5.4-0.1-10.7,1.3-15.5,4c-4.5,2.6-8.3,6.4-10.7,11.1c-2.6,4.8-4,10.3-3.9,15.9c-0.1,5.6,1.3,11.1,4,16c2.6,4.7,6.5,8.5,11.3,11.1
		c9.4,4.7,20.5,5.3,30.4,1.5c3.9-1.6,7.3-4.1,9.9-7.4l-7.3-8.7c-4.1,4.3-9.8,6.8-15.8,6.5c-4.5,0.1-8.9-1.2-12.6-3.9
		c-3.3-2.6-5.6-6.3-6.2-10.5h45.6C540.1,240.9,540.2,239.5,540.2,238.5L540.2,238.5z M510.8,218.7c4.1-0.1,8,1.3,11.1,4.1
		c3,2.8,4.9,6.5,5.4,10.6h-32.9c0.4-4.1,2.5-7.9,5.5-10.6C502.8,219.9,506.8,218.6,510.8,218.7z M594.3,184.5v30.9
		c-2.1-2.7-4.9-4.7-8.2-6.1c-3.3-1.4-7-2-10.5-2c-5.3-0.1-10.5,1.3-15,3.9c-4.4,2.6-8,6.3-10.5,10.8c-5,10.2-5,22.1,0,32.3
		c2.4,4.5,6,8.4,10.5,10.8c4.6,2.6,9.8,4,15,3.9c3.8,0,7.5-0.6,10.9-2.1c3.2-1.4,6.1-3.6,8.3-6.4v7.8H608v-83.7L594.3,184.5z
		 M577.3,257c-3.1,0-6.1-0.8-8.8-2.4c-2.7-1.6-4.8-3.9-6.2-6.7c-3-6.2-3-13.6,0-19.9c1.4-2.8,3.5-5,6.2-6.7c5.5-3.1,12.1-3.1,17.6,0
		c2.7,1.6,4.8,3.9,6.2,6.7c3,6.2,3,13.6,0,19.9c-1.4,2.8-3.5,5-6.2,6.7C583.4,256.2,580.4,257.1,577.3,257L577.3,257z M623.6,268.2
		h13.6V208h-13.6V268.2L623.6,268.2z M675,207.4c-4.6,0-9.2,0.6-13.6,1.9c-4,1.2-7.7,3-10.9,5.6l5.4,10.3c2.4-1.9,5-3.4,7.9-4.4
		c3.1-1.1,6.3-1.6,9.7-1.6c3.9-0.3,7.7,1,10.8,3.4c2.6,2.6,3.9,6.1,3.6,9.7v0.9H673c-6.4-0.5-13,1.2-18.4,4.9c-3.9,3.2-6,8-5.8,13
		c0,3.3,0.9,6.5,2.7,9.3c1.8,2.8,4.5,5,7.5,6.4c3.5,1.6,7.5,2.4,11.4,2.4c3.9,0.1,7.6-0.6,11.2-2c2.9-1.3,5.4-3.3,7.1-6v7.3h12.9
		v-35.3c0.5-7.1-1.9-14.1-6.8-19.2C689.2,209.1,682.1,206.9,675,207.4L675,207.4z M673.2,258.8c-2.9,0.2-5.8-0.6-8.2-2.3
		c-1.9-1.4-3-3.8-2.9-6.1c0-5.4,3.9-8,11.7-8h14.1v7c-1,2.9-3,5.4-5.6,7C679.5,258,676.3,258.9,673.2,258.8L673.2,258.8z
		 M815.7,189.3l-19.4,60.4L777,189.3h-13l-19.7,60.1l-18.9-60.1h-14.7l25.2,79H751l19.1-58.5l18.8,58.5h15l25.2-79H815.7
		L815.7,189.3z M837.8,268.2h13.6V208h-13.6V268.2L837.8,268.2z M910.9,268.2h16.5l-26.6-35l24.3-25.2h-16.3l-28.1,27v-50.5H867
		v83.7h13.6v-15.9l10.1-10L910.9,268.2z M933.4,268.2h13.6V208h-13.6V268.2L933.4,268.2z M630.4,200c2.4,0.1,4.5-0.8,6.2-2.4
		c1.6-1.5,2.5-3.5,2.5-5.7c0-2-0.9-4-2.5-5.3c-1.7-1.4-4-2.1-6.2-2.1c-2.3-0.1-4.5,0.8-6.2,2.3c-3,2.7-3.3,7.2-0.8,10.3
		c0.2,0.2,0.4,0.5,0.8,0.8C626,199.3,628.1,200.1,630.4,200L630.4,200z M844.7,200c2.4,0.1,4.5-0.8,6.2-2.4c1.6-1.5,2.5-3.5,2.5-5.7
		c0-2-0.9-4-2.5-5.3c-1.7-1.4-4-2.1-6.2-2.1c-2.3-0.1-4.5,0.8-6.2,2.3c-3,2.7-3.3,7.2-0.8,10.3c0.2,0.2,0.4,0.5,0.8,0.8
		C840.2,199.3,842.3,200.1,844.7,200L844.7,200z M940.3,200c2.3,0.1,4.5-0.8,6.2-2.3c1.6-1.5,2.5-3.5,2.5-5.7c0-2-0.9-4-2.5-5.3
		c-1.7-1.4-4-2.1-6.2-2.1c-2.3-0.1-4.5,0.8-6.2,2.3c-3,2.7-3.3,7.2-0.8,10.3c0.2,0.2,0.4,0.5,0.8,0.8
		C935.8,199.3,938.1,200.1,940.3,200L940.3,200z"/>
	<path id="Semantic_wordmark" d="M407.4,157.2c-5-1.5-9.8-4.2-13.6-7.7l5.2-12.7c3.5,3,7.6,5.4,12,7c4.6,1.7,9.4,2.7,14.4,2.7
		c5.9,0,10.4-1.1,13.3-3.1c2.8-1.8,4.5-4.9,4.4-8.3c0.1-2.4-0.9-4.6-2.5-6.2c-1.8-1.7-3.9-3-6.2-3.9c-2.5-1-5.9-1.9-10.3-3.1
		c-5-1.3-10-2.8-14.8-4.8c-3.9-1.6-7.2-4.2-9.8-7.5c-2.7-3.4-4.1-7.9-4.1-13.7c0-4.7,1.2-9.2,3.6-13.3c2.6-4.2,6.4-7.5,10.8-9.4
		c4.8-2.4,10.7-3.5,17.8-3.5c4.8,0,9.8,0.6,14.4,2c4.4,1.2,8.6,3.1,12.2,5.8L449.6,90c-3.4-2.3-7.1-4-10.9-5.2
		c-3.5-1.2-7.3-1.7-11.1-1.7c-5.9,0-10.2,1.1-13.1,3.2c-2.8,2-4.4,5.3-4.3,8.7c-0.1,2.4,0.9,4.5,2.5,6.1c1.8,1.7,3.9,3,6.2,3.8
		c2.5,1,5.9,1.9,10.3,3.1c5,1.2,9.9,2.8,14.6,4.7c3.9,1.6,7.2,4.2,9.8,7.5c2.7,3.3,4.1,7.8,4.1,13.6c0.2,9.8-5.6,18.8-14.5,22.6
		c-5.6,2.5-11.7,3.8-17.8,3.5C419.3,160.1,413.2,159.1,407.4,157.2L407.4,157.2z M526.3,130.4h-48.2c0.6,4.6,3,8.8,6.7,11.8
		c3.8,3,8.5,4.5,13.3,4.4c6.3,0.2,12.4-2.6,16.6-7.3l7.7,9.8c-2.7,3.6-6.3,6.4-10.5,8.3c-10.4,4.2-22.1,3.6-32.1-1.6
		c-5-2.9-9.2-7.2-11.9-12.3c-2.9-5.6-4.3-11.7-4.2-17.9c-0.1-6.1,1.3-12.2,4.1-17.8c5.3-10.4,16-17,27.7-16.7
		c11.5-0.2,22.1,6.2,27,16.6c2.8,5.7,4.1,11.9,4,18.2C526.5,126.8,526.5,128.4,526.3,130.4L526.3,130.4z M483.8,107.9
		c-3.3,3.2-5.4,7.4-5.8,11.9h34.9c-0.4-4.5-2.5-8.7-5.7-11.9c-3.1-3-7.4-4.7-11.7-4.5C491.2,103.4,487,105,483.8,107.9z M634.8,98.4
		c4.6,5,6.9,12.4,6.9,22.5v39.2h-14.6v-37.1c0-6-1.2-10.5-3.6-13.5c-2.4-3-5.9-4.5-10.4-4.5c-4.5-0.2-8.9,1.8-11.8,5.4
		c-3,3.5-4.4,8.6-4.4,15.1v34.8h-14.6V123c0-6-1.2-10.5-3.6-13.5c-2.4-3-5.9-4.5-10.4-4.5c-4.5-0.2-8.9,1.7-11.8,5.3
		s-4.4,8.6-4.4,15.2v34.8h-14.6V91.1h13.8v9.4c2.3-3,5.3-5.5,8.7-7.1c3.6-1.6,7.6-2.5,11.7-2.5c4.3-0.1,8.6,0.9,12.4,2.9
		c3.6,1.9,6.7,4.9,8.6,8.5c2.6-3.5,5.9-6.4,9.9-8.4c4.2-2,8.8-3.1,13.4-3C624,90.8,630.2,93.3,634.8,98.4L634.8,98.4z M700,97.9
		c4.8,4.7,7.2,11.9,7.2,21.6V160h-13.5v-9.1c-1.8,3-4.4,5.4-7.5,6.8c-3.8,1.6-7.7,2.5-11.8,2.4c-4.2,0.1-8.3-0.8-12.1-2.6
		c-3.3-1.6-6.1-4.1-7.9-7.2c-1.9-3.1-2.9-6.8-2.8-10.4c0-6.1,2-10.9,6.1-14.6c4.1-3.6,10.5-5.5,19.4-5.5h15.9v-1
		c0-4.7-1.3-8.4-3.9-10.8c-2.6-2.6-6.3-3.8-11.5-3.8c-3.4,0-6.9,0.6-10.2,1.8c-3.1,1.1-6,2.7-8.5,4.9l-5.7-11.5
		c3.4-2.8,7.4-4.9,11.6-6.2c4.6-1.5,9.6-2.1,14.4-2.1C688.3,90.8,695.2,93.2,700,97.9L700,97.9z M686.9,145.8
		c2.8-1.8,4.9-4.6,5.9-7.7v-7.8H678c-8.3,0-12.4,3-12.4,9c-0.1,2.7,1.1,5.2,3.1,6.9c2,1.7,4.9,2.6,8.6,2.6
		C680.7,148.6,684,147.6,686.9,145.8L686.9,145.8z M776.8,98.4c4.7,5,7.1,12.4,7.1,22.3v39h-14.5v-36.9c0-5.9-1.3-10.4-3.9-13.4
		c-2.6-3-6.2-4.5-10.8-4.5c-5.4,0-9.6,1.7-12.7,5.3c-3.1,3.5-4.6,8.6-4.6,15.2v34.4h-14.5V91h13.8v9.6c2.4-3.1,5.5-5.6,9-7.2
		c3.9-1.7,8-2.5,12.2-2.5C765.8,90.8,772,93.3,776.8,98.4L776.8,98.4z M835.9,155.4c-1.8,1.6-3.9,2.7-6.1,3.4
		c-2.5,0.8-5,1.2-7.6,1.2c-6.8,0-11.9-1.9-15.7-5.8c-3.6-3.9-5.5-9.6-5.5-17v-33.9h-10.1V90.7H801V69.4h14.4v21.4h16.4v12.7h-16.4
		v33.5c0,3.3,0.8,5.8,2.1,7.5c1.6,1.8,4,2.8,6.3,2.6c2.9,0.1,5.8-0.9,8-2.8L835.9,155.4z M847.3,82c-2.8-3-2.8-7.5,0-10.5
		c1.3-1.4,3.2-2.1,5-2.1c1.9,0,3.8,0.6,5,2c1.4,1.3,2.1,3.1,2,5c0.1,2-0.6,4-2,5.5c-1.3,1.5-3.2,2.3-5.2,2.3
		C850.4,84.2,848.6,83.4,847.3,82L847.3,82z M845.2,90.8h14.3v69.2h-14.3V90.8z M887,155.6c-5-2.9-9.1-7.2-11.8-12.3
		c-5.7-11.3-5.7-24.5,0-35.7c2.7-5.2,6.8-9.3,11.8-12.2c5.3-3,11.2-4.5,17.2-4.4c5.6-0.1,11.1,1.3,15.9,4.1
		c4.6,2.7,8.2,6.8,10.3,11.6l-11.1,7.1c-1.5-2.9-3.9-5.3-6.7-7c-2.6-1.5-5.6-2.4-8.7-2.4c-5-0.1-10,1.9-13.3,5.8
		c-3.5,3.9-5.3,9-5.3,15.3c0,6.4,1.7,11.5,5.3,15.3c3.4,3.8,8.3,5.9,13.4,5.8c3,0,6-0.8,8.7-2.4c2.8-1.7,5-4.2,6.7-7l11.1,7.1
		c-2.3,4.8-5.8,8.9-10.4,11.7c-4.8,2.8-10.3,4.2-15.8,4.1C898.1,160.1,892.2,158.6,887,155.6L887,155.6z"/>
</g>
</svg>
