<?xml version="1.0" encoding="utf-8"?>
<!-- Generator: Adobe Illustrator 28.2.0, SVG Export Plug-In . SVG Version: 6.00 Build 0)  -->
<svg version="1.1" baseProfile="tiny" id="图层_1"
	 xmlns="http://www.w3.org/2000/svg" xmlns:xlink="http://www.w3.org/1999/xlink" x="0px" y="0px" viewBox="0 0 957.8 335"
	 overflow="visible" xml:space="preserve">
<g id="Badge">
	<g id="Icon-2">
		<path fill="#788CC7" d="M267.3,291.2H124.5L53.1,167.5l71.4-123.8h142.8l71.4,123.8L267.3,291.2z M132.3,277.7h127.2l63.6-110.3
			L259.5,57.2H132.3L68.7,167.5L132.3,277.7z"/>
		<circle fill="#164EAF" cx="128.4" cy="50.5" r="33.8"/>
		<circle fill="#164EAF" cx="263.4" cy="50.5" r="33.8"/>
		<circle fill="#164EAF" cx="60.9" cy="167.5" r="33.8"/>
		<circle fill="#164EAF" cx="330.9" cy="167.5" r="33.8"/>
		<circle fill="#164EAF" cx="128.4" cy="284.5" r="33.8"/>
		<circle fill="#164EAF" cx="263.4" cy="284.5" r="33.8"/>
		<circle fill="#FFB30F" cx="195.9" cy="167.5" r="67.5"/>
	</g>
	<path id="MediaWiki_wordmark" d="M469.1,273.7L469,200h-10.8l-27.7,48.8L402.3,200h-10.9v73.6H404v-48.2l23.3,39.7h5.9l23.3-40.4
		l0.1,48.8L469.1,273.7L469.1,273.7z M535.9,245.9c0.1-5.3-1.1-10.5-3.5-15.2c-2.2-4.3-5.6-7.8-9.7-10.2c-4.3-2.5-9.2-3.7-14.1-3.6
		c-5-0.1-10,1.2-14.4,3.7c-4.2,2.4-7.7,6-10,10.3c-2.4,4.5-3.7,9.6-3.6,14.8c-0.1,5.2,1.2,10.3,3.7,14.9c2.4,4.4,6.1,7.9,10.5,10.3
		c8.8,4.4,19.1,4.9,28.3,1.4c3.6-1.5,6.8-3.8,9.2-6.9l-6.8-8.1c-3.8,4-9.1,6.3-14.7,6.1c-4.2,0.1-8.3-1.1-11.7-3.6
		c-3.1-2.4-5.2-5.9-5.8-9.8h42.5C535.8,248.1,535.9,246.8,535.9,245.9L535.9,245.9z M508.5,227.4c3.8-0.1,7.5,1.2,10.3,3.8
		c2.8,2.6,4.6,6.1,5,9.9h-30.7c0.4-3.8,2.3-7.4,5.1-9.9C501,228.6,504.7,227.3,508.5,227.4z M586.3,195.6v28.8
		c-2-2.5-4.6-4.4-7.6-5.7c-3.1-1.3-6.5-1.9-9.8-1.9c-4.9-0.1-9.8,1.2-14,3.6c-4.1,2.4-7.5,5.9-9.8,10.1c-4.7,9.5-4.7,20.6,0,30.1
		c2.2,4.2,5.6,7.8,9.8,10.1c4.3,2.4,9.1,3.7,14,3.6c3.5,0,7-0.6,10.2-2c3-1.3,5.7-3.4,7.7-6v7.3H599v-78L586.3,195.6z M570.4,263.1
		c-2.9,0-5.7-0.7-8.2-2.2c-2.5-1.5-4.5-3.6-5.8-6.2c-2.8-5.8-2.8-12.7,0-18.5c1.3-2.6,3.3-4.7,5.8-6.2c5.1-2.9,11.3-2.9,16.4,0
		c2.5,1.5,4.5,3.6,5.8,6.2c2.8,5.8,2.8,12.7,0,18.5c-1.3,2.6-3.3,4.7-5.8,6.2C576.1,262.4,573.3,263.2,570.4,263.1L570.4,263.1z
		 M613.6,273.6h12.7v-56.1h-12.7L613.6,273.6L613.6,273.6z M661.5,216.9c-4.3,0-8.6,0.6-12.7,1.8c-3.7,1.1-7.2,2.8-10.2,5.2l5,9.6
		c2.2-1.8,4.7-3.2,7.4-4.1c2.9-1,5.9-1.5,9-1.5c3.6-0.3,7.2,0.9,10.1,3.2c2.4,2.4,3.6,5.7,3.4,9v0.8h-13.9c-6-0.5-12.1,1.1-17.1,4.6
		c-3.6,3-5.6,7.5-5.4,12.1c0,3.1,0.8,6.1,2.5,8.7c1.7,2.6,4.2,4.7,7,6c3.3,1.5,7,2.2,10.6,2.2c3.6,0.1,7.1-0.6,10.4-1.9
		c2.7-1.2,5-3.1,6.6-5.6v6.8h12v-32.9c0.5-6.6-1.8-13.1-6.3-17.9C674.7,218.5,668.1,216.4,661.5,216.9L661.5,216.9z M659.8,264.8
		c-2.7,0.2-5.4-0.6-7.6-2.1c-1.8-1.3-2.8-3.5-2.7-5.7c0-5,3.6-7.5,10.9-7.5h13.1v6.5c-0.9,2.7-2.8,5-5.2,6.5
		C665.7,264.1,662.7,264.9,659.8,264.8L659.8,264.8z M792.6,200l-18.1,56.3L756.5,200h-12.1L726,256L708.4,200h-13.7l23.5,73.6h14.1
		l17.8-54.5l17.5,54.5h14l23.5-73.6L792.6,200L792.6,200z M813.2,273.6h12.7v-56.1h-12.7L813.2,273.6L813.2,273.6z M881.3,273.6
		h15.4L871.9,241l22.6-23.5h-15.2l-26.2,25.2v-47.1h-12.7v78h12.7v-14.8l9.4-9.3L881.3,273.6z M902.3,273.6H915v-56.1h-12.7
		L902.3,273.6L902.3,273.6z M619.9,210c2.2,0.1,4.2-0.7,5.8-2.2c1.5-1.4,2.3-3.3,2.3-5.3c0-1.9-0.8-3.7-2.3-4.9
		c-1.6-1.3-3.7-2-5.8-2c-2.1-0.1-4.2,0.7-5.8,2.1c-2.8,2.5-3.1,6.7-0.7,9.6c0.2,0.2,0.4,0.5,0.7,0.7
		C615.8,209.4,617.8,210.1,619.9,210L619.9,210z M819.6,210c2.2,0.1,4.2-0.7,5.8-2.2c1.5-1.4,2.3-3.3,2.3-5.3c0-1.9-0.8-3.7-2.3-4.9
		c-1.6-1.3-3.7-2-5.8-2c-2.1-0.1-4.2,0.7-5.8,2.1c-2.8,2.5-3.1,6.7-0.7,9.6c0.2,0.2,0.4,0.5,0.7,0.7
		C815.4,209.4,817.4,210.1,819.6,210L819.6,210z M908.7,210c2.1,0.1,4.2-0.7,5.8-2.1c1.5-1.4,2.3-3.3,2.3-5.3c0-1.9-0.8-3.7-2.3-4.9
		c-1.6-1.3-3.7-2-5.8-2c-2.1-0.1-4.2,0.7-5.8,2.1c-2.8,2.5-3.1,6.7-0.7,9.6c0.2,0.2,0.4,0.5,0.7,0.7
		C904.5,209.4,906.6,210.1,908.7,210L908.7,210z"/>
	<path id="Semantic_wordmark" d="M412.1,170.1c-4.7-1.4-9.1-3.9-12.7-7.2l4.8-11.8c3.3,2.8,7.1,5,11.2,6.5c4.3,1.6,8.8,2.5,13.4,2.5
		c5.5,0,9.7-1,12.4-2.9c2.6-1.7,4.2-4.6,4.1-7.7c0.1-2.2-0.8-4.3-2.3-5.8c-1.7-1.6-3.6-2.8-5.8-3.6c-2.3-0.9-5.5-1.8-9.6-2.9
		c-4.7-1.2-9.3-2.6-13.8-4.5c-3.6-1.5-6.7-3.9-9.1-7c-2.5-3.2-3.8-7.4-3.8-12.8c0-4.4,1.1-8.6,3.4-12.4c2.4-3.9,6-7,10.1-8.8
		c4.5-2.2,10-3.3,16.6-3.3c4.5,0,9.1,0.6,13.4,1.9c4.1,1.1,8,2.9,11.4,5.4l-4.4,11.8c-3.2-2.1-6.6-3.7-10.2-4.8
		c-3.3-1.1-6.8-1.6-10.3-1.6c-5.5,0-9.5,1-12.2,3c-2.6,1.9-4.1,4.9-4,8.1c-0.1,2.2,0.8,4.2,2.3,5.7c1.7,1.6,3.6,2.8,5.8,3.5
		c2.3,0.9,5.5,1.8,9.6,2.9c4.7,1.1,9.2,2.6,13.6,4.4c3.6,1.5,6.7,3.9,9.1,7c2.5,3.1,3.8,7.3,3.8,12.7c0.2,9.1-5.2,17.5-13.5,21.1
		c-5.2,2.3-10.9,3.5-16.6,3.3C423.2,172.8,417.5,171.9,412.1,170.1L412.1,170.1z M522.9,145.2H478c0.6,4.3,2.8,8.2,6.2,11
		c3.5,2.8,7.9,4.2,12.4,4.1c5.9,0.2,11.6-2.4,15.5-6.8l7.2,9.1c-2.5,3.4-5.9,6-9.8,7.7c-9.7,3.9-20.6,3.4-29.9-1.5
		c-4.7-2.7-8.6-6.7-11.1-11.5c-2.7-5.2-4-10.9-3.9-16.7c-0.1-5.7,1.2-11.4,3.8-16.6c4.9-9.7,14.9-15.8,25.8-15.6
		c10.7-0.2,20.6,5.8,25.2,15.5c2.6,5.3,3.8,11.1,3.7,17C523.1,141.8,523.1,143.3,522.9,145.2L522.9,145.2z M483.3,124.2
		c-3.1,3-5,6.9-5.4,11.1h32.5c-0.4-4.2-2.3-8.1-5.3-11.1c-2.9-2.8-6.9-4.4-10.9-4.2C490.2,120,486.3,121.5,483.3,124.2z M624,115.3
		c4.3,4.7,6.4,11.6,6.4,21v36.5h-13.6v-34.6c0-5.6-1.1-9.8-3.4-12.6c-2.2-2.8-5.5-4.2-9.7-4.2c-4.2-0.2-8.3,1.7-11,5
		c-2.8,3.3-4.1,8-4.1,14.1v32.4h-13.6v-34.6c0-5.6-1.1-9.8-3.4-12.6c-2.2-2.8-5.5-4.2-9.7-4.2c-4.2-0.2-8.3,1.6-11,4.9
		c-2.7,3.3-4.1,8-4.1,14.2v32.4h-13.6v-64.5h12.9v8.8c2.1-2.8,4.9-5.1,8.1-6.6c3.4-1.5,7.1-2.3,10.9-2.3c4-0.1,8,0.8,11.6,2.7
		c3.4,1.8,6.2,4.6,8,7.9c2.4-3.3,5.5-6,9.2-7.8c3.9-1.9,8.2-2.9,12.5-2.8C614,108.3,619.7,110.6,624,115.3L624,115.3z M684.8,114.9
		c4.5,4.4,6.7,11.1,6.7,20.1v37.7h-12.6v-8.5c-1.7,2.8-4.1,5-7,6.3c-3.5,1.5-7.2,2.3-11,2.2c-3.9,0.1-7.7-0.7-11.3-2.4
		c-3.1-1.5-5.7-3.8-7.4-6.7c-1.8-2.9-2.7-6.3-2.6-9.7c0-5.7,1.9-10.2,5.7-13.6c3.8-3.4,9.8-5.1,18.1-5.1h14.8v-0.9
		c0-4.4-1.2-7.8-3.6-10.1c-2.4-2.4-5.9-3.5-10.7-3.5c-3.2,0-6.4,0.6-9.5,1.7c-2.9,1-5.6,2.5-7.9,4.6l-5.3-10.7
		c3.2-2.6,6.9-4.6,10.8-5.8c4.3-1.4,8.9-2,13.4-2C673.9,108.3,680.3,110.5,684.8,114.9L684.8,114.9z M672.6,159.5
		c2.6-1.7,4.6-4.3,5.5-7.2v-7.3h-13.8c-7.7,0-11.6,2.8-11.6,8.4c-0.1,2.5,1,4.8,2.9,6.4c1.9,1.6,4.6,2.4,8,2.4
		C666.8,162.1,669.9,161.2,672.6,159.5L672.6,159.5z M756.3,115.3c4.4,4.7,6.6,11.6,6.6,20.8v36.3h-13.5V138c0-5.5-1.2-9.7-3.6-12.5
		c-2.4-2.8-5.8-4.2-10.1-4.2c-5,0-8.9,1.6-11.8,4.9c-2.9,3.3-4.3,8-4.3,14.2v32.1h-13.5v-64.1H719v8.9c2.2-2.9,5.1-5.2,8.4-6.7
		c3.6-1.6,7.5-2.3,11.4-2.3C746.1,108.3,751.9,110.6,756.3,115.3L756.3,115.3z M811.4,168.5c-1.7,1.5-3.6,2.5-5.7,3.2
		c-2.3,0.7-4.7,1.1-7.1,1.1c-6.3,0-11.1-1.8-14.6-5.4c-3.4-3.6-5.1-8.9-5.1-15.8V120h-9.4v-11.8h9.4V88.3h13.4v19.9h15.3V120h-15.3
		v31.2c0,3.1,0.7,5.4,2,7c1.5,1.7,3.7,2.6,5.9,2.4c2.7,0.1,5.4-0.8,7.5-2.6L811.4,168.5z M822,100.1c-2.6-2.8-2.6-7,0-9.8
		c1.2-1.3,3-2,4.7-2c1.8,0,3.5,0.6,4.7,1.9c1.3,1.2,2,2.9,1.9,4.7c0.1,1.9-0.6,3.7-1.9,5.1c-1.2,1.4-3,2.1-4.8,2.1
		C824.9,102.1,823.2,101.4,822,100.1L822,100.1z M820.1,108.3h13.3v64.5h-13.3V108.3z M859,168.6c-4.7-2.7-8.5-6.7-11-11.5
		c-5.3-10.5-5.3-22.8,0-33.3c2.5-4.8,6.3-8.7,11-11.4c4.9-2.8,10.4-4.2,16-4.1c5.2-0.1,10.3,1.2,14.8,3.8c4.3,2.5,7.6,6.3,9.6,10.8
		l-10.3,6.6c-1.4-2.7-3.6-4.9-6.2-6.5c-2.4-1.4-5.2-2.2-8.1-2.2c-4.7-0.1-9.3,1.8-12.4,5.4c-3.3,3.6-4.9,8.4-4.9,14.3
		c0,6,1.6,10.7,4.9,14.3c3.2,3.5,7.7,5.5,12.5,5.4c2.8,0,5.6-0.7,8.1-2.2c2.6-1.6,4.7-3.9,6.2-6.5l10.3,6.6
		c-2.1,4.5-5.4,8.3-9.7,10.9c-4.5,2.6-9.6,3.9-14.7,3.8C869.4,172.8,863.9,171.4,859,168.6L859,168.6z"/>
</g>
</svg>
