<svg xmlns="http://www.w3.org/2000/svg" viewBox="0 0 957.775 335"><defs><linearGradient id="linear-gradient" x1="476.004" x2="481.765" y1="-2541.489" y2="-2871.187" gradientTransform="matrix(1 0 0 -1 0 -2538.963)" gradientUnits="userSpaceOnUse"><stop offset="0" stop-color="#fff"/><stop offset="1" stop-color="#ebebeb"/></linearGradient><linearGradient id="linear-gradient-2" x1="476.004" x2="481.766" y1="-2541.487" y2="-2871.183" gradientTransform="matrix(1 0 0 -1 0 -2538.963)" gradientUnits="userSpaceOnUse"><stop offset="0" stop-color="#c8c8c8"/><stop offset="1" stop-color="#787878"/></linearGradient><style>.cls-4{fill:#164eaf}</style></defs><g id="Badge"><path id="button" d="M54.724 2.7h848.325a51.843 51.843 0 0 1 52.027 51.655v226.291a51.842 51.842 0 0 1-52.027 51.654H54.724A51.843 51.843 0 0 1 2.7 280.646V54.359A51.843 51.843 0 0 1 54.724 2.7z" style="fill:url(#linear-gradient)"/><path d="M903.046 335H54.729C24.547 335 0 310.622 0 280.651V54.359C0 24.388 24.547 0 54.729 0h848.317c30.182 0 54.729 24.388 54.729 54.359v226.292c0 29.971-24.547 54.349-54.729 54.349zM54.729 5.4A49.2 49.2 0 0 0 5.4 54.359v226.292c0 26.985 22.13 48.946 49.326 48.946h848.32c27.195 0 49.325-21.961 49.325-48.946V54.359A49.2 49.2 0 0 0 903.046 5.4z" style="fill:url(#linear-gradient-2)"/><g id="Icon-2" data-name="Icon"><path d="M278.571 277.5H151.64l-63.462-110 63.462-110h126.931l63.461 110zm-120-12H271.64l56.539-98-56.539-98H158.571l-56.539 98z" style="fill:#788cc7"/><circle cx="155.105" cy="63.503" r="30" class="cls-4"/><circle cx="275.105" cy="63.503" r="30" class="cls-4"/><circle cx="95.105" cy="167.503" r="30" class="cls-4"/><circle cx="335.105" cy="167.503" r="30" class="cls-4"/><circle cx="155.105" cy="271.503" r="30" class="cls-4"/><circle cx="275.105" cy="271.503" r="30" class="cls-4"/><circle cx="215.105" cy="167.503" r="60" style="fill:#ffb30f"/></g><path id="MediaWiki_wordmark" d="m478.415 250.824-.094-65.73h-9.678l-24.7 43.567-25.143-43.567h-9.69v65.73h11.218v-43l20.834 35.463h5.229l20.809-36.034.089 43.567h11.129zm59.616-24.79a28.479 28.479 0 0 0-3.127-13.567 22.557 22.557 0 0 0-8.686-9.107 24.617 24.617 0 0 0-12.621-3.24 25.25 25.25 0 0 0-12.844 3.287 23.23 23.23 0 0 0-8.912 9.154 27.027 27.027 0 0 0-3.213 13.192 26.609 26.609 0 0 0 3.3 13.29 23.176 23.176 0 0 0 9.381 9.154 31.509 31.509 0 0 0 25.239 1.219 20.446 20.446 0 0 0 8.22-6.125l-6.059-7.211a17.28 17.28 0 0 1-13.118 5.445 16.616 16.616 0 0 1-10.448-3.241 13.71 13.71 0 0 1-5.2-8.779h37.915q.178-2.252.179-3.474zm-24.426-16.526a13.186 13.186 0 0 1 9.228 3.381 14.017 14.017 0 0 1 4.433 8.826h-27.412a14.186 14.186 0 0 1 4.569-8.873 13.344 13.344 0 0 1 9.182-3.334zm69.478-28.365v25.735a17.7 17.7 0 0 0-6.783-5.078 22.248 22.248 0 0 0-8.775-1.688 24.727 24.727 0 0 0-12.531 3.193 22.627 22.627 0 0 0-8.729 9.026 30.15 30.15 0 0 0 0 26.9 22.528 22.528 0 0 0 8.729 9.061 24.7 24.7 0 0 0 12.531 3.193 22.668 22.668 0 0 0 9.092-1.782 17.547 17.547 0 0 0 6.918-5.351v6.477h10.847v-69.686zm-14.2 60.288a14.124 14.124 0 0 1-7.332-1.923 13.68 13.68 0 0 1-5.156-5.492 18.891 18.891 0 0 1 0-16.522 13.68 13.68 0 0 1 5.152-5.5 14.913 14.913 0 0 1 14.653 0 13.684 13.684 0 0 1 5.164 5.5 18.927 18.927 0 0 1 0 16.526 13.68 13.68 0 0 1-5.156 5.492 14.132 14.132 0 0 1-7.329 1.923zm38.54 9.381h11.308v-50.126h-11.317v50.138zM650.2 200.12a39.271 39.271 0 0 0-11.308 1.594 27.072 27.072 0 0 0-9.134 4.6l4.432 8.544a19.481 19.481 0 0 1 6.645-3.662 25.1 25.1 0 0 1 8-1.313 12.789 12.789 0 0 1 8.99 2.818 10.485 10.485 0 0 1 3.029 8.075v.751H648.4a23.392 23.392 0 0 0-15.245 4.084 13.484 13.484 0 0 0-4.839 10.843 13.951 13.951 0 0 0 2.217 7.747 14.794 14.794 0 0 0 6.285 5.343 22.017 22.017 0 0 0 9.5 1.924 22.438 22.438 0 0 0 9.272-1.736 13.293 13.293 0 0 0 5.925-5.023v6.1h10.675v-29.375a20.947 20.947 0 0 0-5.656-16.026 23 23 0 0 0-16.331-5.3zm-1.536 42.816a10.893 10.893 0 0 1-6.785-1.876 6.058 6.058 0 0 1-2.443-5.082q0-6.665 9.772-6.668h11.671v5.82a10.9 10.9 0 0 1-4.659 5.773 14.185 14.185 0 0 1-7.556 2.017zm118.6-57.849-16.194 50.242-16.02-50.235h-10.843l-16.373 49.954-15.734-49.954h-12.222l20.99 65.726h12.571l15.924-48.637L745 250.82h12.484l21-65.726h-11.222zm18.371 65.725h11.308v-50.126h-11.31v50.138zm60.792 0h13.74L838.1 221.7l20.177-21.018h-13.571l-23.429 22.538v-42.077h-11.308v69.681h11.308v-13.239l8.411-8.263zm18.817 0h11.308v-50.126h-11.3v50.138zm-252.127-56.794a7.275 7.275 0 0 0 5.2-1.931 6.256 6.256 0 0 0 2.036-4.737 5.507 5.507 0 0 0-2.079-4.386 7.751 7.751 0 0 0-5.156-1.751 7.518 7.518 0 0 0-5.155 1.837 6.051 6.051 0 0 0 0 9.131 7.509 7.509 0 0 0 5.155 1.837zm178.219 0a7.276 7.276 0 0 0 5.2-1.931 6.255 6.255 0 0 0 2.036-4.729 5.507 5.507 0 0 0-2.083-4.394 7.751 7.751 0 0 0-5.156-1.751 7.523 7.523 0 0 0-5.156 1.837 6.052 6.052 0 0 0 0 9.131 7.513 7.513 0 0 0 5.156 1.837zm79.609 0a7.278 7.278 0 0 0 5.2-1.919 6.257 6.257 0 0 0 2.036-4.738 5.508 5.508 0 0 0-2.083-4.4 7.751 7.751 0 0 0-5.156-1.751 7.511 7.511 0 0 0-5.156 1.837 6.045 6.045 0 0 0 0 9.131 7.5 7.5 0 0 0 5.156 1.837z" data-name="MediaWiki wordmark"/><path id="Semantic_wordmark" d="M421.053 160.164a31.692 31.692 0 0 1-11.948-6.71l4.5-11.106a34.49 34.49 0 0 0 10.549 6.1 35.179 35.179 0 0 0 12.546 2.365q7.8 0 11.648-2.75a8.512 8.512 0 0 0 3.849-7.258 7.374 7.374 0 0 0-2.149-5.443 14.845 14.845 0 0 0-5.449-3.355q-3.3-1.207-9-2.75a97.28 97.28 0 0 1-12.946-4.179 21.415 21.415 0 0 1-8.5-6.541q-3.552-4.455-3.55-12.045a22.048 22.048 0 0 1 3.15-11.6 21.826 21.826 0 0 1 9.5-8.3q6.348-3.079 15.547-3.081a45.96 45.96 0 0 1 12.6 1.761 33.291 33.291 0 0 1 10.7 5.058l-4.1 11.108a38.64 38.64 0 0 0-9.6-4.51 32.937 32.937 0 0 0-9.7-1.538q-7.7 0-11.447 2.859a9.074 9.074 0 0 0-3.75 7.588 7.181 7.181 0 0 0 2.149 5.389 15.174 15.174 0 0 0 5.45 3.3q3.3 1.212 9 2.75a88.564 88.564 0 0 1 12.8 4.125 22.029 22.029 0 0 1 8.548 6.544q3.548 4.4 3.549 11.877a21.067 21.067 0 0 1-12.7 19.795 35.752 35.752 0 0 1-15.6 3.081 48.98 48.98 0 0 1-15.646-2.534zm103.926-23.347h-42.121a16.352 16.352 0 0 0 5.78 10.341 17.773 17.773 0 0 0 11.612 3.815 18.684 18.684 0 0 0 14.575-6.414l6.736 8.514a22.889 22.889 0 0 1-9.148 7.188 33.235 33.235 0 0 1-28.047-1.437 26.515 26.515 0 0 1-10.4-10.782 32.835 32.835 0 0 1-3.669-15.648 33.354 33.354 0 0 1 3.568-15.535 26.475 26.475 0 0 1 24.178-14.653 25.648 25.648 0 0 1 23.674 14.541 35.191 35.191 0 0 1 3.468 15.98q-.005 1.436-.206 4.09zm-37.145-19.628a17.052 17.052 0 0 0-5.077 10.449h30.461a16.866 16.866 0 0 0-4.927-10.392 14.173 14.173 0 0 0-10.253-3.982 14.337 14.337 0 0 0-10.204 3.925zm131.97-8.43q6.008 6.551 6.008 19.659v34.276h-12.729v-32.485q0-7.841-3.155-11.818t-9.063-3.975a12.712 12.712 0 0 0-10.287 4.649q-3.87 4.65-3.868 13.273v30.356h-12.728v-32.485q0-7.841-3.158-11.818t-9.063-3.975a12.743 12.743 0 0 0-10.337 4.591q-3.816 4.6-3.818 13.331v30.356h-12.728v-60.488H547v8.29a20.037 20.037 0 0 1 7.635-6.163 23.915 23.915 0 0 1 10.185-2.127 22.735 22.735 0 0 1 10.845 2.52 18.3 18.3 0 0 1 7.483 7.45 23.075 23.075 0 0 1 8.657-7.337 25.945 25.945 0 0 1 11.71-2.633q10.28 0 16.285 6.553zm57.023-.305q6.282 6.246 6.283 18.854v35.386h-11.863v-7.963a15.019 15.019 0 0 1-6.583 5.918 23.707 23.707 0 0 1-10.3 2.045 23.319 23.319 0 0 1-10.556-2.266 16.765 16.765 0 0 1-6.987-6.305 17.158 17.158 0 0 1-2.467-9.123q0-7.963 5.377-12.773t16.94-4.811h13.873v-.883q0-6.194-3.368-9.509t-10-3.319a26.447 26.447 0 0 0-8.895 1.549 21.36 21.36 0 0 0-7.39 4.311l-4.928-10.065a29.474 29.474 0 0 1 10.152-5.419 41.418 41.418 0 0 1 12.566-1.879q11.864.004 18.146 6.252zm-11.459 41.8a12.721 12.721 0 0 0 5.176-6.8V136.6h-12.967q-10.86 0-10.859 7.851a7.3 7.3 0 0 0 2.716 5.972q2.712 2.213 7.537 2.211a15.094 15.094 0 0 0 8.397-2.381zm78.565-41.475q6.174 6.576 6.176 19.5v34.088H737.45v-32.312q0-7.8-3.341-11.752t-9.519-3.954q-6.989 0-11.041 4.624t-4.05 13.31v30.08H696.84v-60.157h12.052v8.355a19.97 19.97 0 0 1 7.9-6.239 26.16 26.16 0 0 1 10.736-2.116q10.226 0 16.405 6.572zm51.65 49.94a14.31 14.31 0 0 1-5.371 2.982 22.16 22.16 0 0 1-6.675.994q-8.837 0-13.655-5.079t-4.818-14.8V113.25h-8.835v-11.044h8.835v-18.7h12.55v18.7h14.355v11.044h-14.355v29.233q0 4.307 1.906 6.572a6.816 6.816 0 0 0 5.52 2.263 10.364 10.364 0 0 0 7.03-2.429zm9.931-64.167a6.778 6.778 0 0 1 0-9.194 5.965 5.965 0 0 1 4.452-1.848 6.127 6.127 0 0 1 4.454 1.761 5.948 5.948 0 0 1 1.8 4.427 6.82 6.82 0 0 1-1.757 4.767 5.8 5.8 0 0 1-4.492 1.935 5.965 5.965 0 0 1-4.457-1.849zm-1.8 7.655h12.5v60.488h-12.5zm36.568 56.618a27.056 27.056 0 0 1-10.354-10.782 34.656 34.656 0 0 1 0-31.241 27.293 27.293 0 0 1 10.3-10.725 29.1 29.1 0 0 1 15.031-3.87 26.854 26.854 0 0 1 13.921 3.537 22.15 22.15 0 0 1 9 10.175l-9.651 6.193a16.13 16.13 0 0 0-5.781-6.139 14.677 14.677 0 0 0-7.589-2.045 15.164 15.164 0 0 0-11.663 5.031q-4.623 5.035-4.623 13.436t4.573 13.436a15.118 15.118 0 0 0 11.713 5.031 14.668 14.668 0 0 0 7.589-2.045 16.084 16.084 0 0 0 5.781-6.138l9.651 6.193a23.056 23.056 0 0 1-9.1 10.229 26.3 26.3 0 0 1-13.82 3.594 29.173 29.173 0 0 1-14.975-3.871z" data-name="Semantic wordmark"/></g></svg>