<?xml version="1.0" encoding="utf-8"?>
<!-- Generator: Adobe Illustrator 28.2.0, SVG Export Plug-In . SVG Version: 6.00 Build 0)  -->
<svg version="1.1" baseProfile="tiny" id="图层_1"
	 xmlns="http://www.w3.org/2000/svg" xmlns:xlink="http://www.w3.org/1999/xlink" x="0px" y="0px" viewBox="0 0 957.8 335"
	 overflow="visible" xml:space="preserve">
<g id="Badge">
	<g id="Icon-2">
		<path fill="#788CC7" d="M267.3,291.2H124.5L53.1,167.5l71.4-123.8h142.8l71.4,123.8L267.3,291.2z M132.3,277.7h127.2l63.6-110.3
			L259.5,57.2H132.3L68.7,167.5L132.3,277.7z"/>
		<circle fill="#164EAF" cx="128.4" cy="50.5" r="33.8"/>
		
			<ellipse transform="matrix(0.1735 -0.9848 0.9848 0.1735 167.9652 301.1432)" fill="#164EAF" cx="263.4" cy="50.5" rx="33.8" ry="33.8"/>
		<circle fill="#164EAF" cx="60.9" cy="167.5" r="33.8"/>
		<circle fill="#164EAF" cx="330.9" cy="167.5" r="33.8"/>
		<circle fill="#164EAF" cx="128.4" cy="284.5" r="33.8"/>
		<circle fill="#164EAF" cx="263.4" cy="284.5" r="33.8"/>
		<circle fill="#FFB30F" cx="195.9" cy="167.5" r="67.5"/>
	</g>
	<path id="MediaWiki_wordmark" d="M471.9,264.9l-0.1-76.4h-11.2l-28.7,50.6l-29.2-50.6h-11.3v76.3h13.1v-50l24.2,41.2h6.1l24.2-41.9
		l0.1,50.6L471.9,264.9L471.9,264.9z M541.2,236.1c0.1-5.5-1.1-10.9-3.6-15.8c-2.3-4.5-5.8-8.1-10.1-10.6c-4.5-2.6-9.5-3.8-14.6-3.7
		c-5.2-0.1-10.4,1.2-14.9,3.8c-4.4,2.5-8,6.2-10.4,10.7c-2.5,4.7-3.8,10-3.7,15.3c-0.1,5.4,1.2,10.7,3.8,15.4
		c2.5,4.6,6.3,8.2,10.9,10.7c9.1,4.6,19.8,5.1,29.3,1.5c3.7-1.6,7-3.9,9.5-7.2l-7-8.4c-3.9,4.1-9.4,6.5-15.2,6.3
		c-4.4,0.1-8.6-1.1-12.1-3.7c-3.2-2.5-5.4-6.1-6-10.2h44.1C541.1,238.4,541.2,237,541.2,236.1L541.2,236.1z M512.8,216.9
		c3.9-0.1,7.8,1.2,10.7,3.9c2.9,2.7,4.8,6.3,5.2,10.3h-31.8c0.4-3.9,2.4-7.7,5.3-10.3C505,218.2,508.8,216.8,512.8,216.9z
		 M593.4,184v29.9c-2.1-2.6-4.8-4.6-7.9-5.9c-3.2-1.3-6.7-2-10.2-2c-5.1-0.1-10.2,1.2-14.5,3.7c-4.2,2.5-7.8,6.1-10.2,10.5
		c-4.9,9.8-4.9,21.4,0,31.2c2.3,4.4,5.8,8.1,10.2,10.5c4.5,2.5,9.4,3.8,14.5,3.7c3.6,0,7.3-0.6,10.6-2.1c3.1-1.3,5.9-3.5,8-6.2v7.6
		h12.6V184L593.4,184z M576.9,253.9c-3,0-5.9-0.7-8.5-2.3c-2.6-1.6-4.7-3.7-6-6.4c-2.9-6-2.9-13.2,0-19.2c1.3-2.7,3.4-4.9,6-6.4
		c5.3-3,11.7-3,17,0c2.6,1.6,4.7,3.7,6,6.4c2.9,6,2.9,13.2,0,19.2c-1.3,2.7-3.4,4.9-6,6.4C582.8,253.2,579.9,254,576.9,253.9
		L576.9,253.9z M621.7,264.8h13.2v-58.2h-13.2V264.8L621.7,264.8z M671.4,206c-4.5,0-8.9,0.6-13.2,1.9c-3.8,1.1-7.5,2.9-10.6,5.4
		l5.2,10c2.3-1.9,4.9-3.3,7.7-4.2c3-1,6.1-1.6,9.3-1.6c3.7-0.3,7.5,0.9,10.5,3.3c2.5,2.5,3.7,5.9,3.5,9.3v0.8h-14.4
		c-6.2-0.5-12.5,1.1-17.7,4.8c-3.7,3.1-5.8,7.8-5.6,12.5c0,3.2,0.8,6.3,2.6,9c1.8,2.7,4.4,4.9,7.3,6.2c3.4,1.6,7.3,2.3,11,2.3
		c3.7,0.1,7.4-0.6,10.8-2c2.8-1.2,5.2-3.2,6.8-5.8v7H697v-34.1c0.5-6.8-1.9-13.6-6.5-18.6C685.1,207.7,678.2,205.5,671.4,206
		L671.4,206z M669.6,255.7c-2.8,0.2-5.6-0.6-7.9-2.2c-1.9-1.3-2.9-3.6-2.8-5.9c0-5.2,3.7-7.8,11.3-7.8h13.6v6.7
		c-0.9,2.8-2.9,5.2-5.4,6.7C675.7,255,672.6,255.8,669.6,255.7L669.6,255.7z M807.3,188.5l-18.8,58.4l-18.7-58.4h-12.5l-19.1,58
		l-18.2-58h-14.2l24.4,76.3h14.6l18.5-56.5l18.1,56.5h14.5l24.4-76.3H807.3L807.3,188.5z M828.6,264.8h13.2v-58.2h-13.2V264.8
		L828.6,264.8z M899.2,264.8h16L889.5,231l23.4-24.4h-15.8L870,232.8V184h-13.2v80.9H870v-15.3l9.7-9.6L899.2,264.8z M921,264.8
		h13.2v-58.2H921V264.8L921,264.8z M628.3,198.9c2.3,0.1,4.4-0.7,6-2.3c1.6-1.5,2.4-3.4,2.4-5.5c0-2-0.8-3.8-2.4-5.1
		c-1.7-1.3-3.8-2.1-6-2.1c-2.2-0.1-4.4,0.7-6,2.2c-2.9,2.6-3.2,6.9-0.7,10c0.2,0.2,0.4,0.5,0.7,0.7C624,198.3,626.1,199,628.3,198.9
		L628.3,198.9z M835.2,198.9c2.3,0.1,4.4-0.7,6-2.3c1.6-1.5,2.4-3.4,2.4-5.5c0-2-0.8-3.8-2.4-5.1c-1.7-1.3-3.8-2.1-6-2.1
		c-2.2-0.1-4.4,0.7-6,2.2c-2.9,2.6-3.2,6.9-0.7,10c0.2,0.2,0.4,0.5,0.7,0.7C830.9,198.3,833,199,835.2,198.9L835.2,198.9z
		 M927.6,198.9c2.2,0.1,4.4-0.7,6-2.2c1.6-1.5,2.4-3.4,2.4-5.5c0-2-0.8-3.8-2.4-5.1c-1.7-1.3-3.8-2.1-6-2.1c-2.2-0.1-4.4,0.7-6,2.2
		c-2.9,2.6-3.2,6.9-0.7,10c0.2,0.2,0.4,0.5,0.7,0.7C923.3,198.3,925.4,199,927.6,198.9L927.6,198.9z"/>
	<path id="Semantic_wordmark" d="M412.9,157.5c-4.9-1.5-9.4-4-13.2-7.5l5-12.2c3.4,2.9,7.4,5.2,11.6,6.7c4.5,1.7,9.1,2.6,13.9,2.6
		c5.7,0,10.1-1,12.9-3c2.7-1.8,4.4-4.8,4.2-8c0.1-2.3-0.8-4.5-2.4-6c-1.8-1.7-3.7-2.9-6-3.7c-2.4-0.9-5.7-1.9-10-3
		c-4.9-1.2-9.6-2.7-14.3-4.7c-3.7-1.6-6.9-4-9.4-7.3c-2.6-3.3-3.9-7.7-3.9-13.3c0-4.6,1.1-8.9,3.5-12.9c2.5-4,6.2-7.3,10.5-9.1
		c4.7-2.3,10.4-3.4,17.2-3.4c4.7,0,9.4,0.6,13.9,2c4.2,1.1,8.3,3,11.8,5.6l-4.6,12.2c-3.3-2.2-6.8-3.8-10.6-5
		c-3.4-1.1-7-1.7-10.7-1.7c-5.7,0-9.8,1-12.6,3.1c-2.7,2-4.2,5.1-4.1,8.4c-0.1,2.3,0.8,4.4,2.4,5.9c1.8,1.7,3.7,2.9,6,3.6
		c2.4,0.9,5.7,1.9,10,3c4.9,1.1,9.5,2.7,14.1,4.6c3.7,1.6,6.9,4,9.4,7.3c2.6,3.2,3.9,7.6,3.9,13.2c0.2,9.4-5.4,18.1-14,21.9
		c-5.4,2.4-11.3,3.6-17.2,3.4C424.4,160.3,418.5,159.4,412.9,157.5L412.9,157.5z M527.7,131.7h-46.5c0.6,4.5,2.9,8.5,6.4,11.4
		c3.6,2.9,8.2,4.4,12.9,4.2c6.1,0.2,12-2.5,16.1-7l7.5,9.4c-2.6,3.5-6.1,6.2-10.2,8c-10.1,4-21.4,3.5-31-1.6
		c-4.9-2.8-8.9-6.9-11.5-11.9c-2.8-5.4-4.1-11.3-4-17.3c-0.1-5.9,1.2-11.8,3.9-17.2c5.1-10.1,15.4-16.4,26.7-16.2
		c11.1-0.2,21.4,6,26.1,16.1c2.7,5.5,3.9,11.5,3.8,17.6C527.9,128.2,527.9,129.7,527.7,131.7L527.7,131.7z M486.7,109.9
		c-3.2,3.1-5.2,7.2-5.6,11.5h33.7c-0.4-4.4-2.4-8.4-5.5-11.5c-3-2.9-7.2-4.6-11.3-4.4C493.8,105.6,489.8,107.1,486.7,109.9z
		 M632.5,100.7c4.5,4.9,6.6,12,6.6,21.8v37.8H625v-35.9c0-5.8-1.1-10.2-3.5-13.1c-2.3-2.9-5.7-4.4-10.1-4.4
		c-4.4-0.2-8.6,1.8-11.4,5.2c-2.9,3.4-4.2,8.3-4.2,14.6v33.6h-14.1v-35.9c0-5.8-1.1-10.2-3.5-13.1c-2.3-2.9-5.7-4.4-10.1-4.4
		c-4.4-0.2-8.6,1.7-11.4,5.1c-2.8,3.4-4.2,8.3-4.2,14.7v33.6h-14.1V93.7h13.4v9.1c2.2-2.9,5.1-5.3,8.4-6.8c3.5-1.6,7.4-2.4,11.3-2.4
		c4.1-0.1,8.3,0.8,12,2.8c3.5,1.9,6.4,4.8,8.3,8.2c2.5-3.4,5.7-6.2,9.5-8.1c4-2,8.5-3,13-2.9C622.1,93.5,628,95.8,632.5,100.7
		L632.5,100.7z M695.5,100.3c4.7,4.6,6.9,11.5,6.9,20.8v39.1h-13.1v-8.8c-1.8,2.9-4.2,5.2-7.3,6.5c-3.6,1.6-7.5,2.4-11.4,2.3
		c-4,0.1-8-0.7-11.7-2.5c-3.2-1.6-5.9-3.9-7.7-6.9c-1.9-3-2.8-6.5-2.7-10.1c0-5.9,2-10.6,5.9-14.1c3.9-3.5,10.2-5.3,18.8-5.3h15.3
		v-0.9c0-4.6-1.2-8.1-3.7-10.5c-2.5-2.5-6.1-3.6-11.1-3.6c-3.3,0-6.6,0.6-9.8,1.8c-3,1-5.8,2.6-8.2,4.8l-5.5-11.1
		c3.3-2.7,7.2-4.8,11.2-6c4.5-1.5,9.2-2.1,13.9-2.1C684.2,93.5,690.9,95.7,695.5,100.3L695.5,100.3z M682.9,146.5
		c2.7-1.8,4.8-4.5,5.7-7.5v-7.6h-14.3c-8,0-12,2.9-12,8.7c-0.1,2.6,1,5,3,6.6c2,1.7,4.8,2.5,8.3,2.5
		C676.9,149.2,680.1,148.3,682.9,146.5L682.9,146.5z M769.6,100.7c4.6,4.9,6.8,12,6.8,21.6v37.6h-14v-35.7c0-5.7-1.2-10.1-3.7-13
		c-2.5-2.9-6-4.4-10.5-4.4c-5.2,0-9.2,1.7-12.2,5.1c-3,3.4-4.5,8.3-4.5,14.7V160h-14V93.6H731v9.2c2.3-3,5.3-5.4,8.7-6.9
		c3.7-1.7,7.8-2.4,11.8-2.4C759.1,93.5,765.1,95.8,769.6,100.7L769.6,100.7z M826.7,155.9c-1.8,1.6-3.7,2.6-5.9,3.3
		c-2.4,0.7-4.9,1.1-7.4,1.1c-6.5,0-11.5-1.9-15.1-5.6c-3.5-3.7-5.3-9.2-5.3-16.4v-32.8h-9.7V93.4h9.7V72.7H807v20.6h15.9v12.2H807
		v32.3c0,3.2,0.7,5.6,2.1,7.3c1.6,1.8,3.8,2.7,6.1,2.5c2.8,0.1,5.6-0.8,7.8-2.7L826.7,155.9z M837.7,85c-2.7-2.9-2.7-7.3,0-10.2
		c1.2-1.3,3.1-2.1,4.9-2.1c1.9,0,3.6,0.6,4.9,2c1.3,1.2,2.1,3,2,4.9c0.1,2-0.6,3.8-2,5.3c-1.2,1.5-3.1,2.2-5,2.2
		C840.7,87,839,86.3,837.7,85L837.7,85z M835.8,93.5h13.8v66.9h-13.8V93.5z M876.1,156c-4.9-2.8-8.8-6.9-11.4-11.9
		c-5.5-10.9-5.5-23.6,0-34.5c2.6-5,6.5-9,11.4-11.8c5.1-2.9,10.8-4.4,16.6-4.2c5.4-0.1,10.7,1.2,15.3,3.9c4.5,2.6,7.9,6.5,10,11.2
		l-10.7,6.8c-1.5-2.8-3.7-5.1-6.4-6.7c-2.5-1.5-5.4-2.3-8.4-2.3c-4.9-0.1-9.6,1.9-12.9,5.6c-3.4,3.7-5.1,8.7-5.1,14.8
		c0,6.2,1.7,11.1,5.1,14.8c3.3,3.6,8,5.7,13,5.6c2.9,0,5.8-0.7,8.4-2.3c2.7-1.7,4.9-4,6.4-6.7l10.7,6.8c-2.2,4.7-5.6,8.6-10.1,11.3
		c-4.7,2.7-10,4-15.2,3.9C886.9,160.3,881.2,158.9,876.1,156L876.1,156z"/>
</g>
</svg>
