<svg xmlns="http://www.w3.org/2000/svg" width="89" height="31" fill="none"><path fill="#788CC7" d="M23.099 27.403H9.364L2.497 15.5 9.364 3.597h13.735L29.966 15.5l-6.867 11.903Zm-12.985-1.299h12.235L28.467 15.5 22.349 4.895H10.114L3.996 15.5l6.118 10.604Z"/><path fill="#164EAF" d="M9.739 7.493a3.246 3.246 0 1 0 0-6.493 3.246 3.246 0 0 0 0 6.493ZM22.724 7.493a3.246 3.246 0 1 0 0-6.493 3.246 3.246 0 0 0 0 6.493ZM3.246 18.746a3.246 3.246 0 1 0 0-6.492 3.246 3.246 0 0 0 0 6.492ZM29.216 18.746a3.246 3.246 0 1 0 0-6.492 3.246 3.246 0 0 0 0 6.492ZM9.739 30a3.246 3.246 0 1 0 0-6.493 3.246 3.246 0 0 0 0 6.493ZM22.724 30a3.246 3.246 0 1 0 0-6.493 3.246 3.246 0 0 0 0 6.493Z"/><path fill="#FFB30F" d="M16.231 21.992a6.493 6.493 0 1 0 0-12.985 6.493 6.493 0 0 0 0 12.986Z"/><path fill="#000" d="m44.724 24.516-.01-7.112h-1.048l-2.672 4.714-2.721-4.714h-1.049v7.112h1.214v-4.653l2.255 3.838h.566l2.251-3.9.01 4.715h1.204Zm6.45-2.682a3.082 3.082 0 0 0-.337-1.468 2.442 2.442 0 0 0-.94-.986 2.664 2.664 0 0 0-1.366-.35 2.733 2.733 0 0 0-1.39.355 2.514 2.514 0 0 0-.964.99c-.236.44-.355.93-.348 1.428-.008.502.115.998.357 1.438.236.421.589.765 1.015.99a3.409 3.409 0 0 0 2.731.133c.348-.142.654-.37.89-.663l-.656-.78a1.87 1.87 0 0 1-1.42.589 1.797 1.797 0 0 1-1.13-.35 1.483 1.483 0 0 1-.563-.95h4.103a5.22 5.22 0 0 0 .02-.377h-.001Zm-2.642-1.789c.367-.011.725.12.998.366.27.25.441.59.48.955h-2.966c.043-.37.219-.71.494-.96.274-.241.629-.37.994-.36Zm7.518-3.069v2.785a1.916 1.916 0 0 0-.734-.55 2.408 2.408 0 0 0-.95-.182 2.675 2.675 0 0 0-1.356.345c-.4.23-.728.569-.944.977a3.263 3.263 0 0 0 0 2.91c.215.41.543.75.944.981.414.234.882.353 1.356.346.338.004.673-.062.984-.193a1.9 1.9 0 0 0 .749-.58v.702h1.174v-7.541H56.05ZM54.513 23.5a1.48 1.48 0 0 1-1.351-.802 2.043 2.043 0 0 1 0-1.788 1.48 1.48 0 0 1 .557-.596 1.614 1.614 0 0 1 1.586 0c.238.142.432.349.559.596a2.047 2.047 0 0 1 0 1.788 1.48 1.48 0 0 1-1.351.802Zm4.17 1.015h1.224V19.09h-1.224v5.425-.001Zm4.63-5.486a4.25 4.25 0 0 0-1.224.173c-.358.102-.694.27-.989.498l.48.924c.212-.178.456-.312.72-.396.278-.094.57-.142.865-.142.351-.026.699.083.973.305a1.134 1.134 0 0 1 .327.874v.08h-1.347a2.53 2.53 0 0 0-1.65.443 1.458 1.458 0 0 0-.524 1.173c-.004.297.08.589.24.838.168.254.404.454.68.579.323.145.675.216 1.028.208a2.43 2.43 0 0 0 1.004-.188c.263-.113.486-.303.64-.544v.66h1.156v-3.178a2.267 2.267 0 0 0-.612-1.734 2.489 2.489 0 0 0-1.767-.574v.001Zm-.167 4.634a1.178 1.178 0 0 1-.734-.204.656.656 0 0 1-.264-.55c0-.48.352-.72 1.057-.72h1.263v.629a1.18 1.18 0 0 1-.504.624c-.247.148-.53.224-.818.219v.002Zm12.834-6.26-1.752 5.436-1.734-5.435h-1.173l-1.772 5.405-1.703-5.405h-1.322l2.271 7.112h1.36l1.724-5.263 1.692 5.263h1.35l2.273-7.112H75.98v-.001Zm1.988 7.112h1.223V19.09h-1.223v5.425-.001Zm6.578 0h1.487l-2.388-3.15 2.183-2.275H84.36l-2.535 2.44v-4.554H80.6v7.54h1.224v-1.432l.91-.895 1.811 2.326Zm2.036 0h1.224V19.09h-1.223v5.425-.001ZM59.3 18.369a.787.787 0 0 0 .563-.209.677.677 0 0 0 .162-.776.596.596 0 0 0-.167-.211.839.839 0 0 0-.558-.19.814.814 0 0 0-.558.2.654.654 0 0 0 0 .987.813.813 0 0 0 .558.2Zm19.285 0a.788.788 0 0 0 .562-.209.678.678 0 0 0 .163-.776.596.596 0 0 0-.168-.211.839.839 0 0 0-.558-.19.815.815 0 0 0-.558.2.657.657 0 0 0 0 .987.814.814 0 0 0 .558.2Zm8.614 0a.788.788 0 0 0 .563-.207.678.678 0 0 0 .22-.513.598.598 0 0 0-.225-.476.838.838 0 0 0-.558-.19.812.812 0 0 0-.558.199.654.654 0 0 0 0 .988.812.812 0 0 0 .558.199ZM38.517 14.706a3.428 3.428 0 0 1-1.293-.726l.487-1.202c.338.286.725.51 1.141.66.434.167.894.254 1.358.256.563 0 .983-.1 1.26-.298a.92.92 0 0 0 .417-.785.797.797 0 0 0-.233-.589 1.605 1.605 0 0 0-.59-.363 12.398 12.398 0 0 0-.973-.298 10.505 10.505 0 0 1-1.401-.452 2.317 2.317 0 0 1-.92-.708c-.256-.32-.384-.755-.384-1.303a2.387 2.387 0 0 1 .34-1.255 2.362 2.362 0 0 1 1.029-.898c.458-.222 1.018-.334 1.682-.334.461 0 .92.064 1.364.19.415.113.807.298 1.157.548l-.443 1.202a4.182 4.182 0 0 0-1.039-.488 3.564 3.564 0 0 0-1.05-.166c-.555 0-.968.103-1.238.31a.982.982 0 0 0-.406.82.777.777 0 0 0 .232.583c.17.16.37.281.59.357.238.088.563.187.974.298.472.114.935.263 1.385.446.362.156.68.4.925.709.256.317.384.745.384 1.285a2.28 2.28 0 0 1-1.374 2.142c-.53.236-1.108.35-1.688.333a5.298 5.298 0 0 1-1.693-.274Zm11.245-2.526h-4.557c.06.438.284.837.625 1.119.357.281.802.428 1.257.412a2.022 2.022 0 0 0 1.577-.694l.729.921c-.258.34-.599.609-.99.778a3.595 3.595 0 0 1-3.035-.155 2.87 2.87 0 0 1-1.126-1.167 3.553 3.553 0 0 1-.397-1.693 3.61 3.61 0 0 1 .386-1.681 2.864 2.864 0 0 1 2.617-1.586 2.775 2.775 0 0 1 2.562 1.574c.259.539.387 1.131.375 1.729 0 .104-.008.251-.022.443Zm-4.019-2.124c-.31.3-.504.7-.55 1.13h3.297a1.824 1.824 0 0 0-.533-1.124 1.534 1.534 0 0 0-1.11-.431c-.41-.01-.806.143-1.104.425Zm14.28-.913c.434.473.65 1.182.65 2.128v3.709h-1.377v-3.516c0-.565-.114-.992-.341-1.278-.228-.287-.555-.43-.981-.43a1.375 1.375 0 0 0-1.113.503c-.28.335-.419.814-.419 1.436v3.285h-1.377v-3.516c0-.565-.114-.992-.342-1.278-.227-.287-.554-.43-.98-.43a1.379 1.379 0 0 0-1.119.496c-.275.332-.413.813-.413 1.443v3.285h-1.377V8.434h1.311v.897c.216-.287.5-.516.826-.667a2.588 2.588 0 0 1 1.103-.23 2.46 2.46 0 0 1 1.173.273c.343.183.625.464.81.806.241-.338.563-.611.937-.794.394-.193.828-.29 1.267-.285.741 0 1.329.237 1.762.71Zm6.17-.033c.454.451.68 1.131.68 2.04v3.83H65.59v-.862c-.168.28-.416.503-.712.64-.35.157-.731.232-1.115.222a2.523 2.523 0 0 1-1.142-.246 1.815 1.815 0 0 1-.756-.682 1.858 1.858 0 0 1-.267-.987c0-.574.194-1.035.582-1.382.388-.347.999-.52 1.833-.52h1.5v-.096c0-.447-.12-.79-.364-1.03-.243-.238-.603-.358-1.082-.358-.328 0-.653.057-.962.167a2.31 2.31 0 0 0-.8.467l-.533-1.09a3.188 3.188 0 0 1 1.099-.586c.44-.137.898-.206 1.36-.203.855 0 1.51.226 1.963.676Zm-1.24 4.524c.267-.174.465-.434.56-.736v-.742h-1.402c-.784 0-1.175.283-1.175.85a.79.79 0 0 0 .294.646c.195.16.467.24.815.239.322.005.638-.084.909-.258Zm8.502-4.488c.446.474.668 1.177.669 2.11v3.688h-1.37v-3.496c0-.563-.12-.987-.362-1.272-.24-.285-.584-.428-1.03-.428-.504 0-.902.167-1.194.5-.293.334-.439.814-.439 1.44v3.256h-1.37v-6.51h1.305v.904c.222-.294.516-.526.854-.675a2.83 2.83 0 0 1 1.162-.229c.738 0 1.33.237 1.775.712Zm5.59 5.403a1.548 1.548 0 0 1-.582.323 2.397 2.397 0 0 1-.722.108c-.638 0-1.13-.184-1.478-.55-.347-.366-.521-.9-.521-1.601v-3.2h-.956V8.434h.956V6.411H77.1v2.023h1.553V9.63H77.1v3.164c0 .31.069.547.206.71a.738.738 0 0 0 .597.246c.278.01.549-.085.761-.263l.38 1.063Zm1.074-6.943a.733.733 0 0 1 0-.995.645.645 0 0 1 .482-.2.663.663 0 0 1 .63.41c.033.082.049.17.046.26a.738.738 0 0 1-.19.516.628.628 0 0 1-.486.209.646.646 0 0 1-.482-.2Zm-.195.828h1.353v6.546h-1.353V8.434Zm3.957 6.127a2.928 2.928 0 0 1-1.12-1.167 3.75 3.75 0 0 1 0-3.38 2.953 2.953 0 0 1 1.114-1.16 3.149 3.149 0 0 1 1.627-.42 2.906 2.906 0 0 1 1.506.383c.432.256.773.641.974 1.101l-1.044.67a1.745 1.745 0 0 0-.626-.664 1.588 1.588 0 0 0-.821-.221 1.64 1.64 0 0 0-1.262.544c-.334.363-.5.848-.5 1.454s.165 1.09.495 1.454a1.634 1.634 0 0 0 1.267.544c.289.003.573-.074.821-.221a1.74 1.74 0 0 0 .626-.664l1.044.67c-.209.46-.552.846-.985 1.107-.453.265-.97.4-1.495.389a3.158 3.158 0 0 1-1.62-.42v.001Z"/></svg>