<svg xmlns="http://www.w3.org/2000/svg" width="18" height="18" viewBox="0 0 22 22"><path fill="#888" d="m18.209 17.013-2.982-3.399a6.383 6.383 0 0 0 1.395-3.636 6.447 6.447 0 0 0-.35-2.578 6.552 6.552 0 0 0-1.259-2.184 6.56 6.56 0 0 0-2.002-1.532 6.46 6.46 0 0 0-2.51-.682 6.447 6.447 0 0 0-2.578.35c-.832.291-1.56.711-2.184 1.259a6.56 6.56 0 0 0-1.532 2.002 6.458 6.458 0 0 0-.682 2.51 6.448 6.448 0 0 0 .35 2.578c.29.832.711 1.56 1.259 2.184a6.561 6.561 0 0 0 2.002 1.532 6.438 6.438 0 0 0 2.51.682 6.386 6.386 0 0 0 3.787-.911l2.983 3.39c.208.25.479.385.814.407.322.021.61-.078.86-.298.251-.22.387-.492.408-.815a1.141 1.141 0 0 0-.289-.859m-5.383-4.326c-.869.762-1.876 1.106-3.024 1.031-1.147-.075-2.102-.547-2.864-1.415-.762-.869-1.106-1.877-1.031-3.024.075-1.148.547-2.102 1.415-2.864.869-.763 1.877-1.106 3.024-1.031 1.147.074 2.102.546 2.864 1.415.763.869 1.106 1.877 1.032 3.024-.075 1.147-.547 2.102-1.416 2.864"/></svg>