<svg xmlns="http://www.w3.org/2000/svg" width="18" height="18" overflow="visible" viewBox="0 0 94.332 101.883"><g image-rendering="optimizeQuality" shape-rendering="geometricPrecision" text-rendering="geometricPrecision"><path fill="#0C479C" d="M84.45 66.836a18.554 18.554 0 0 0-1.936-.879l.466-.038s-4.151-1.838-4.514-15.18c-.359-13.344 3.957-15.62 3.957-15.62l-.62.027a18.47 18.47 0 0 0 7.917-7.804c4.823-9.072 1.372-20.341-7.702-25.165C72.94-2.641 61.674.802 56.854 9.883c-1.982 3.725-2.545 7.817-1.919 11.683l-.212-.326s1.093 4.842-10.258 11.888c-11.349 7.05-16.469 3.54-16.469 3.54l.326.48c-.325-.201-.636-.406-.975-.583C18.269 31.741 7 35.188 2.178 44.266c-4.82 9.077-1.372 20.341 7.703 25.167 6.766 3.591 14.744 2.59 20.365-1.914l-.122.236s4.132-3.399 16.04 2.994c9.4 5.044 10.796 9.988 10.975 11.846-.246 6.893 3.347 13.654 9.847 17.107 9.075 4.825 20.344 1.375 25.164-7.701 4.824-9.075 1.378-20.345-7.7-25.165zm-20.984 2.446c-1.504.532-5.801 1.121-14.847-3.73-9.797-5.26-11.251-9.654-11.464-10.973.139-1.6.05-3.197-.223-4.755l.06.09s-.798-4.274 10.412-11.235c10.033-6.228 14.594-4.989 15.443-4.664a18.45 18.45 0 0 0 1.706 1.033c1.129.6 2.293 1.07 3.472 1.418 1.38 1.314 3.92 5.045 4.184 14.854.27 9.883-2.634 13.694-4.217 15.042a18.46 18.46 0 0 0-4.526 2.92z"/><path fill="#FFF" d="M62.239 8.1c-5.415 5.923-5.529 14.636-.312 19.566-2.579-2.483-2.523-7.651.083-12.597.335-.443 1.306-1.49 2.725-1.014.143.049.237.062.292.053.321.069.65.11.99.095a3.904 3.904 0 0 0 3.725-4.077 3.848 3.848 0 0 0-1.065-2.48c5.002-3.277 10.742-3.652 13.094-1.504l.09.006C76.488 1.242 67.705 2.119 62.239 8.1z"/><g fill="#FFF"><path d="M7.632 62.845c-.046-.047-.093-.102-.141-.148.03.031.059.069.095.102l.046.046zM7.805 43.13c-5.416 5.924-5.529 14.635-.313 19.566-2.578-2.484-2.523-7.652.083-12.598.336-.444 1.308-1.49 2.727-1.014a.709.709 0 0 0 .292.054c.321.069.651.11.99.095a3.905 3.905 0 0 0 3.725-4.076 3.859 3.859 0 0 0-1.063-2.48c4.999-3.276 10.74-3.654 13.092-1.505l.089.008c-5.373-4.909-14.158-4.033-19.622 1.95z"/></g><g fill="#FFF"><path d="M65.256 92.504c-.047-.048-.094-.102-.141-.148.029.031.059.069.094.101l.047.047zM65.428 72.786c-5.416 5.926-5.529 14.639-.313 19.569-2.58-2.483-2.523-7.653.082-12.597.336-.445 1.307-1.49 2.727-1.014.143.047.235.061.292.053.32.069.651.11.99.096a3.907 3.907 0 0 0 3.723-4.08 3.856 3.856 0 0 0-1.063-2.479c5-3.275 10.739-3.652 13.093-1.504l.088.007c-5.37-4.907-14.156-4.03-19.619 1.949z"/></g></g></svg>