<svg xmlns="http://www.w3.org/2000/svg" width="20" height="20" viewBox="0 0 30 30"><g fill="none" fill-rule="evenodd"><path fill="#343741" d="M1 15c0 1.388.203 2.725.556 4H20a4 4 0 0 0 0-8H1.556A14.953 14.953 0 0 0 1 15"/><path fill="#FEC514" d="M26.33 6.861c.453-.426.881-.879 1.275-1.36A14.965 14.965 0 0 0 16 0C10.248 0 5.272 3.246 2.76 8h20.577c1.103 0 2.188-.384 2.993-1.14"/><path fill="#00BFB3" d="M23.337 22H2.76c2.513 4.753 7.488 8 13.24 8a14.97 14.97 0 0 0 11.606-5.5 14.286 14.286 0 0 0-1.276-1.361C25.525 22.383 24.44 22 23.337 22"/><path fill="#FFC100" d="M12.104 19H1.556h10.547Z"/></g></svg>