<svg xmlns="http://www.w3.org/2000/svg" width="18" height="18" viewBox="0 0 22 22"><g fill="#888" transform="translate(1 1) scale(.02146)"><path d="M466.07 161.53c-205.6 0-382.8 121.2-464.2 296.1-2.5 5.3-2.5 11.5 0 16.9 81.4 174.9 258.6 296.1 464.2 296.1 205.6 0 382.8-121.2 464.2-296.1 2.5-5.3 2.5-11.5 0-16.9-81.4-174.9-258.6-296.1-464.2-296.1m0 514.7c-116.1 0-210.1-94.1-210.1-210.1 0-116.1 94.1-210.1 210.1-210.1 116.1 0 210.1 94.1 210.1 210.1s-94.1 210.1-210.1 210.1"/><circle cx="466.08" cy="466.02" r="134.5"/></g></svg>